<?xml version="1.0" encoding="UTF-8" standalone="no"?>
<svg
   version="1.1"
   x="0px"
   y="0px"
   viewBox="0 0 79.645203 82.379868"
   enable-background="new 0 0 100 100"
   xml:space="preserve"
   id="svg2"
   sodipodi:docname="notaInput.svg"
   inkscape:version="1.3 (1:1.3+202307231459+0e150ed6c4)"
   width="79.645203"
   height="82.379868"
   xmlns:inkscape="http://www.inkscape.org/namespaces/inkscape"
   xmlns:sodipodi="http://sodipodi.sourceforge.net/DTD/sodipodi-0.dtd"
   xmlns="http://www.w3.org/2000/svg"
   xmlns:svg="http://www.w3.org/2000/svg"><defs
     id="defs2" /><sodipodi:namedview
     id="namedview2"
     pagecolor="#ffffff"
     bordercolor="#000000"
     borderopacity="0.25"
     inkscape:showpageshadow="2"
     inkscape:pageopacity="0.0"
     inkscape:pagecheckerboard="0"
     inkscape:deskcolor="#d1d1d1"
     inkscape:zoom="6.528"
     inkscape:cx="39.828431"
     inkscape:cy="55.759804"
     inkscape:window-width="1850"
     inkscape:window-height="1016"
     inkscape:window-x="70"
     inkscape:window-y="27"
     inkscape:window-maximized="1"
     inkscape:current-layer="svg2" /><path
     fill="#000000"
     d="m 15.183048,41.494945 c 0.270544,-0.126259 0.910621,-0.533467 1.506748,-1.067408 1.38247,2.154781 4.346019,2.985825 6.79289,1.843912 1.116745,-0.521167 1.944754,-1.367914 2.417632,-2.355816 1.544941,1.35049 3.891895,1.736169 5.892731,0.802413 1.163942,-0.543192 2.182751,-1.434035 2.800521,-2.525204 l 2.418634,4.503727 c -1.989913,2.715732 -2.390245,6.331016 -0.701727,9.475197 2.477202,4.612788 8.518111,6.4868 13.466361,4.177537 4.948249,-2.309263 6.958547,-7.940637 4.481345,-12.553425 -1.661896,-3.094608 -4.928851,-4.948832 -8.393059,-5.14092 l -10.547685,-19.530892 5.840489,1.959021 c 1.54647,0.480263 3.193359,0.37351 4.637153,-0.300284 1.443793,-0.673794 2.522961,-1.839245 3.036489,-3.280874 1.063904,-2.978726 -0.66422,-6.207495 -3.794066,-7.176371 -0.05419,-0.02043 -5.457536,-2.0059943 -12.881989,-4.3092103 L 30.946201,5.6391287 C 24.919399,2.196315 19.446468,-3.4087576 8.3398829,2.7668755 0.24328892,7.2688537 -0.99031708,14.768277 0.60278192,19.493773 2.3982179,25.85013 8.5388309,39.160067 8.8762689,39.788407 c 1.064556,1.98076 4.0108011,2.778032 6.3067791,1.706538 z m 32.250259,4.686995 c 0.690849,1.286425 0.848069,3.103973 -0.99855,3.965758 -2.172337,1.013793 -3.481612,-1.032553 -3.832693,-1.6863 L 33.284269,31.11077 c -0.275874,-0.513702 -0.945866,-0.721031 -1.496263,-0.46417 -0.550396,0.25686 -0.773801,0.881122 -0.497927,1.394825 l 1.331114,2.478661 c 1.098834,2.046135 -0.490039,3.716046 -1.826146,4.339584 -1.466395,0.684341 -3.255924,0.129192 -3.990034,-1.237789 l -1.83028,-3.408159 C 24.69886,33.70002 24.028867,33.492691 23.47847,33.749551 c -0.550396,0.256861 -0.7738,0.881122 -0.497926,1.394825 l 0.831946,1.549164 c 0.734109,1.366981 0.138587,3.035191 -1.327807,3.719533 -1.466394,0.684341 -3.255923,0.129193 -3.990033,-1.237789 L 16.331591,35.14746 c -0.27554,-0.513083 -0.945866,-0.721032 -1.496263,-0.464171 -0.550396,0.256861 -0.773467,0.881742 -0.497927,1.394825 l 1.271214,2.367121 c -0.301667,0.367074 -0.953938,0.97294 -1.423237,1.191954 -1.189867,0.55529 -2.79978,0.176707 -3.312925,-0.778817 C 8.6375139,34.696701 4.0601549,23.74746 2.8351689,19.492737 1.0845869,14.427327 2.0548389,8.3610237 9.1329689,4.5776777 19.86856,-1.1606262 25.067362,4.5084477 30.23781,7.6095537 l 1.215298,0.379076 c 7.362608,2.2840303 12.713406,4.2507153 12.824131,4.2897133 0.97889,0.304187 1.772785,0.946571 2.233353,1.808837 0.460569,0.863815 0.534229,1.843096 0.207258,2.759031 -0.325975,0.914695 -1.007765,1.652906 -1.919109,2.078215 -0.911346,0.425309 -1.953201,0.491493 -2.908814,0.195043 l -8.446348,-2.832997 c -0.431594,-0.144218 -0.91192,-0.02778 -1.212282,0.289088 -0.30269,0.318727 -0.365943,0.776803 -0.160953,1.156968 z"
     id="path1"
     style="stroke-width:0.717735"
     sodipodi:nodetypes="scscsccssscccsccccsccscsscsssssssssssssscsscscccccsccccc" /><rect
     style="fill:none;stroke:#000000;stroke-width:2.34793;stroke-dasharray:none;stroke-opacity:1"
     id="rect3"
     width="66.762848"
     height="19.93548"
     x="11.708388"
     y="61.27042"
     ry="9.9677401" /></svg>
